<?xml version="1.0" encoding="UTF-8" standalone="no"?>
<svg
   xmlns:dc="http://purl.org/dc/elements/1.1/"
   xmlns:cc="http://creativecommons.org/ns#"
   xmlns:rdf="http://www.w3.org/1999/02/22-rdf-syntax-ns#"
   xmlns:svg="http://www.w3.org/2000/svg"
   xmlns="http://www.w3.org/2000/svg"
   xmlns:sodipodi="http://sodipodi.sourceforge.net/DTD/sodipodi-0.dtd"
   xmlns:inkscape="http://www.inkscape.org/namespaces/inkscape"
   version="1.1"
   x="0px"
   y="0px"
   width="100px"
   height="100px"
   viewBox="5.0 -10.0 100.0 135.0"
   enable-background="new 0 0 100 100"
   xml:space="preserve"
   id="svg4095"
   inkscape:version="0.48.4 r9939"
   sodipodi:docname="cloud.svg"><metadata
     id="metadata4217"><rdf:RDF><cc:Work
         rdf:about=""><dc:format>image/svg+xml</dc:format><dc:type
           rdf:resource="http://purl.org/dc/dcmitype/StillImage" /></cc:Work></rdf:RDF></metadata><defs
     id="defs4215" /><sodipodi:namedview
     pagecolor="#ffffff"
     bordercolor="#666666"
     borderopacity="1"
     objecttolerance="10"
     gridtolerance="10"
     guidetolerance="10"
     inkscape:pageopacity="0"
     inkscape:pageshadow="2"
     inkscape:window-width="1855"
     inkscape:window-height="1056"
     id="namedview4213"
     showgrid="false"
     inkscape:zoom="133.27113"
     inkscape:cx="-47.359736"
     inkscape:cy="80.677518"
     inkscape:window-x="65"
     inkscape:window-y="24"
     inkscape:window-maximized="1"
     inkscape:current-layer="svg4095" /><g
     id="Captions"
     transform="translate(2.970297,-6.2376238)"><rect
       y="-36"
       width="100"
       height="30"
       id="rect4100"
       x="0" /><text
       transform="translate(66,-19.5)"
       font-size="2.4"
       id="text4102"
       style="font-size:2.4000001px;fill:#000000;font-family:Helvetica">http://thenounproject.com</text>
<text
       transform="translate(7.166,-24.5)"
       id="text4104"><tspan
         x="0"
         y="0"
         font-size="6.1578"
         id="tspan4106"
         style="font-size:6.1578002px;fill:#000000;font-family:Helvetica-Bold">The Noun Project</tspan><tspan
         x="1.12"
         y="4.8000002"
         font-size="4"
         id="tspan4108"
         style="font-size:4px;fill:#000000;font-family:Helvetica-Bold">Icon Template</tspan></text>
<line
       stroke-miterlimit="10"
       x1="8"
       y1="-14.5"
       x2="18"
       y2="-14.5"
       id="line4112"
       style="fill:#000000;stroke:#ffffff;stroke-miterlimit:10" /><line
       stroke-miterlimit="10"
       x1="-179"
       y1="16.5"
       x2="-162"
       y2="16.5"
       id="line4114"
       style="fill:#000000;stroke:#ffffff;stroke-miterlimit:10" /><rect
       x="-179"
       y="58"
       width="35"
       height="32.5"
       id="rect4128"
       style="fill:none" /><rect
       x="-94"
       y="58"
       width="35"
       height="32.5"
       id="rect4160"
       style="fill:none" /><rect
       x="-50"
       y="58"
       width="35"
       height="32.5"
       id="rect4170"
       style="fill:none" /><text
       transform="translate(-50,60.1299)"
       id="text4172" />
</g><g
     id="Your_Icon"><path
       d="M83.336,35.018C81.412,28.644,75.501,24,68.5,24c-2.307,0-4.487,0.518-6.454,1.421C57.008,19.074,49.232,15,40.5,15   c-14.39,0-26.19,11.053-27.392,25.132C5.719,41.064,0,47.358,0,55c0,8.284,6.716,15,15,15h68c9.389,0,17-7.835,17-17.5   C100,42.952,92.568,35.204,83.336,35.018z M83,66H15C8.935,66,4,61.065,4,55c0-5.522,4.131-10.208,9.609-10.899l3.21-0.405   l0.275-3.223C18.122,28.432,28.403,19,40.5,19c7.208,0,13.919,3.247,18.413,8.908l1.951,2.458l2.852-1.31   C65.241,28.355,66.851,28,68.5,28c5.028,0,9.554,3.361,11.007,8.173l0.84,2.785l2.908,0.059C90.283,39.158,96,45.207,96,52.5   C96,59.944,90.168,66,83,66z"
       id="path4207" /></g><text
     x="0"
     y="117.5"
     font-size="5.0"
     font-weight="bold"
     id="text4209"
     style="font-size:5px;font-weight:bold;fill:#000000;font-family:'Helvetica Neue, Helvetica, Arial-Unicode, Arial, Sans-serif'" />
<text
     x="0"
     y="122.5"
     font-size="5.0"
     font-weight="bold"
     id="text4211"
     style="font-size:5px;font-weight:bold;fill:#000000;font-family:'Helvetica Neue, Helvetica, Arial-Unicode, Arial, Sans-serif'" />
</svg>