<svg xmlns="http://www.w3.org/2000/svg" xmlns:xlink="http://www.w3.org/1999/xlink" version="1.1" id="Layer_1" x="0px" y="0px" width="100px" height="100px" viewBox="0 0 100 100" enable-background="new 0 0 100 100" xml:space="preserve">
<g>
	<path fill="#000000" d="M60.547,56.007c0-10.775-13.553-21.607-30.274-21.607C13.552,34.399,0,45.231,0,56.007   c0,10.165,12.064,20.609,27.468,21.521c1.271,2.012,3.36,4.77,6.197,6.729c5.156,3.57,12.948,4.543,13.427,4.121   c0.784-0.839-3.083-1.346-7.372-5.632c-1.735-1.736-2.723-3.897-3.234-5.544C50.226,75.354,60.547,65.41,60.547,56.007z"/>
	<path fill="#000000" d="M78.626,60.788c-11.805,0-21.373,8.167-21.373,15.773c0,6.64,7.286,14.178,16.988,15.483   c-0.361,1.163-1.059,2.688-2.284,3.913c-3.028,3.027-5.759,3.385-5.204,3.978c0.338,0.298,5.838-0.388,9.479-2.909   c2.004-1.384,3.479-3.332,4.377-4.751C91.482,91.631,100,83.738,100,76.562C100,68.955,90.432,60.788,78.626,60.788z"/>
	<path fill="#000000" d="M69.02,38.812c0,4.75-5.812,7.312-5.438,8.188c1.062,1.125,10.938-1.562,12.408-8.014   C89.454,38.188,100,28.416,100,19.53C100,10.112,88.153,0,73.535,0C58.92,0,47.072,10.112,47.072,19.53   C47.072,27.751,57.007,37.195,69.02,38.812z"/>
</g>
</svg>