<svg xmlns="http://www.w3.org/2000/svg" xmlns:xlink="http://www.w3.org/1999/xlink" version="1.0" id="Layer_1" x="0px" y="0px" viewBox="4.5 -9.0 90.0 121.5" enable-background="new 0 0 90 90" xml:space="preserve" height="100px" width="100px">
<g>
	<path d="M72.549,56.546c-3.599-5.164-3.443-4.069-12.206-9.389c-2.683-1.629-4.863-3.212-6.602-4.627l-2.953,18.617   c-0.978,0.762-2.818,1.879-5.285,2.209c0.132,0.215,0.21,0.468,0.21,0.739c0,0.515-0.276,0.965-0.688,1.212   c0.041,1.738,0.014,5.217-0.778,6.595c-1.115,1.94-1.733,2.526-3.225,3.941c-0.344,0.326-0.734,0.696-1.191,1.14   c-1.543,1.5-2.137,4.879-2.307,6.107c2.097,0.078,4.36,0.107,6.805,0.076c3.826,0.047,7.205-0.05,10.201-0.254   c2.806-2.81,4.06-5.398,4.611-7.286c-1.706-0.422-2.971-1.961-2.971-3.797c0-2.161,1.752-3.912,3.912-3.912   s3.912,1.752,3.912,3.912c0,2.047-1.572,3.726-3.575,3.897c-0.501,1.858-1.614,4.335-4.031,7.042   c8.343-0.731,13.47-2.324,16.941-3.843c3.763-1.646,4.069-3.756,4.225-5.947C77.713,70.787,76.148,61.71,72.549,56.546z"/>
	<path d="M30.68,27.271c0.403,2.269,1.32,4.059,2.169,4.362c0.973,3.423,2.798,6.297,5.136,8.17   c-0.652,0.639-1.442,1.365-2.373,2.151l3.267,19.234c0,0,3.168,0.858,5.829,0.858s5.208-1.507,5.208-1.507l2.948-18.739   c-0.842-0.718-1.562-1.383-2.167-1.974c2.524-2.01,4.455-5.184,5.366-8.958c0.716-0.644,1.423-2.175,1.787-4.038   c0.4-2.042,0.268-3.871-0.264-4.64c0.098-0.687,0.149-1.391,0.149-2.107C57.736,12.306,51.745,6,44.356,6   s-13.38,6.306-13.38,14.084c0,0.813,0.066,1.61,0.192,2.386C30.51,23.096,30.286,25.052,30.68,27.271z"/>
	<path d="M38.958,76.085c0.462-0.449,0.855-0.822,1.202-1.151c1.439-1.364,1.977-1.875,3.001-3.656c0.581-1.01,0.65-4.01,0.613-5.87   c-0.521-0.209-0.889-0.717-0.889-1.313c0-0.249,0.065-0.483,0.178-0.687c-2.98-0.255-5.282-1.547-5.282-1.547l-2.897-19.304   c-1.733,1.408-3.903,2.981-6.569,4.6c-8.763,5.321-8.607,4.225-12.206,9.389s-5.164,14.241-5.008,16.431   c0.156,2.191,0.462,4.3,4.225,5.947c3.994,1.748,10.181,3.594,20.94,4.111C36.429,81.788,37.071,77.92,38.958,76.085z"/>
</g>
<text x="0.0" y="105.75" font-size="4.5" font-weight="bold" font-family="Helvetica Neue, Helvetica, Arial-Unicode, Arial, Sans-serif" fill="#000000">Created by Ken Ruiz</text><text x="0.0" y="110.25" font-size="4.5" font-weight="bold" font-family="Helvetica Neue, Helvetica, Arial-Unicode, Arial, Sans-serif" fill="#000000">from the Noun Project</text></svg>