<svg xmlns="http://www.w3.org/2000/svg" xmlns:xlink="http://www.w3.org/1999/xlink" version="1.1" id="Layer_1" x="0px" y="0px" width="65.883px" height="100px" viewBox="3.29415 -10.0 65.883 135.0" enable-background="new 0 0 65.883 100" xml:space="preserve">
<g>
	<path d="M32.941,61.707c8.481,0,15.381-6.899,15.381-15.38c0-2.804-0.759-5.434-2.075-7.7c-0.66-0.212-1.323-0.415-1.997-0.595   L32.941,54.178L21.633,38.031c-0.673,0.181-1.337,0.383-1.997,0.595c-1.317,2.267-2.076,4.896-2.076,7.701   C17.561,54.807,24.461,61.707,32.941,61.707z"/>
	<path d="M48.243,39.324c0.981,2.134,1.532,4.504,1.532,7.002c0,9.025-7.138,16.411-16.065,16.815   c0.108,1.008,0.491,2.912,1.86,4.307c1.152,1.174,2.795,1.77,4.882,1.77c3.418,0,5.578,1.671,5.777,4.47   c0.167,2.356-1.285,5.19-3.548,6.034c0.03,0.181,0.05,0.365,0.05,0.556c0,1.864-1.511,3.376-3.376,3.376   c-1.864,0-3.376-1.512-3.376-3.376s1.512-3.376,3.376-3.376c1.156,0,2.176,0.582,2.784,1.469c1.521-0.559,2.777-2.649,2.64-4.579   c-0.143-2.012-1.68-3.12-4.327-3.12c-2.497,0-4.492-0.745-5.93-2.215c-1.743-1.783-2.17-4.14-2.274-5.312   c-8.961-0.366-16.141-7.767-16.141-16.817c0-2.498,0.551-4.869,1.532-7.002C10.761,41.912,4.71,46.187,0,51.655v42.148   c1.969,2.285,4.172,4.362,6.571,6.197h52.741c2.399-1.835,4.603-3.912,6.571-6.197V51.655   C61.174,46.187,55.121,41.912,48.243,39.324z"/>
</g>
<rect x="8.005" y="66.896" fill="#000000" width="12.539" height="1.351"/>
<circle cx="32.942" cy="19.015" r="19.015"/>
<text x="0.0" y="117.5" font-size="5.0" font-weight="bold" font-family="Helvetica Neue, Helvetica, Arial-Unicode, Arial, Sans-serif" fill="#000000">Created by Venkatesh Aiyulu</text><text x="0.0" y="122.5" font-size="5.0" font-weight="bold" font-family="Helvetica Neue, Helvetica, Arial-Unicode, Arial, Sans-serif" fill="#000000">from the Noun Project</text></svg>