<svg xmlns="http://www.w3.org/2000/svg" xmlns:xlink="http://www.w3.org/1999/xlink" version="1.1" id="Your_Icon" x="0px" y="0px" width="100px" height="100px" viewBox="5.0 -10.0 100.0 135.0" enable-background="new 0 0 100 100" xml:space="preserve">
<g>
	<g>
		<g>
			<g>
			</g>
		</g>
		<g>
		</g>
	</g>
</g>
<path fill="#000000" d="M71.257,88.855h-14.31h-0.932H13.078V11.284h58.179v35.515l6.464-11.583V11.43c0-3.66-2.557-6.61-6.217-6.61  H12.809c-3.659,0-6.195,2.951-6.195,6.61v77.683c0,3.659,2.536,6.206,6.195,6.206h58.695c3.66,0,6.217-2.547,6.217-6.206V67.831  l-6.464,11.583V88.855z"/>
<rect x="18.619" y="21.442" fill="#000000" width="36.016" height="4.617"/>
<rect x="18.619" y="42.682" fill="#000000" width="36.016" height="4.617"/>
<rect x="18.619" y="32.523" fill="#000000" width="47.098" height="4.618"/>
<rect x="18.619" y="53.764" fill="#000000" width="47.098" height="4.617"/>
<rect x="18.619" y="63.922" fill="#000000" width="36.016" height="4.617"/>
<polygon fill="#000000" points="87.599,28.092 85.848,31.141 85.092,32.457 91.583,36.183 92.338,34.868 94.088,31.819 "/>
<polygon fill="#000000" points="60.174,74.625 60.174,82.391 66.846,78.353 89.821,38.595 83.33,34.868 "/>
<text x="0.0" y="117.5" font-size="5.0" font-weight="bold" font-family="Helvetica Neue, Helvetica, Arial-Unicode, Arial, Sans-serif" fill="#000000">Created by Jason Tropp</text><text x="0.0" y="122.5" font-size="5.0" font-weight="bold" font-family="Helvetica Neue, Helvetica, Arial-Unicode, Arial, Sans-serif" fill="#000000">from the Noun Project</text></svg>