<?xml version="1.0" encoding="UTF-8" standalone="no"?>
<svg
   xmlns:dc="http://purl.org/dc/elements/1.1/"
   xmlns:cc="http://creativecommons.org/ns#"
   xmlns:rdf="http://www.w3.org/1999/02/22-rdf-syntax-ns#"
   xmlns:svg="http://www.w3.org/2000/svg"
   xmlns="http://www.w3.org/2000/svg"
   xmlns:sodipodi="http://sodipodi.sourceforge.net/DTD/sodipodi-0.dtd"
   xmlns:inkscape="http://www.inkscape.org/namespaces/inkscape"
   version="1.1"
   id="Layer_1"
   x="0px"
   y="0px"
   width="100.0px"
   height="100px"
   viewBox="6.0 -12.0 120.0 162.0"
   enable-background="new 0 0 120 120"
   xml:space="preserve"
   inkscape:version="0.48.4 r9939"
   sodipodi:docname="form_head.svg"><metadata
     id="metadata4323"><rdf:RDF><cc:Work
         rdf:about=""><dc:format>image/svg+xml</dc:format><dc:type
           rdf:resource="http://purl.org/dc/dcmitype/StillImage" /></cc:Work></rdf:RDF></metadata><defs
     id="defs4321" /><sodipodi:namedview
     pagecolor="#ffffff"
     bordercolor="#666666"
     borderopacity="1"
     objecttolerance="10"
     gridtolerance="10"
     guidetolerance="10"
     inkscape:pageopacity="0"
     inkscape:pageshadow="2"
     inkscape:window-width="1855"
     inkscape:window-height="1056"
     id="namedview4319"
     showgrid="false"
     inkscape:zoom="2.36"
     inkscape:cx="50"
     inkscape:cy="50"
     inkscape:window-x="65"
     inkscape:window-y="24"
     inkscape:window-maximized="1"
     inkscape:current-layer="Layer_1" /><path
     d="M21.729,5.935v106.86h76V5.935H21.729z M94.045,109.57H24.954V9.201h69.091V109.57z"
     id="path4283" /><circle
     cx="40.658"
     cy="21.173"
     r="6.026"
     id="circle4285" /><path
     d="M51.714,33.801H30.021c0.019-3.448,1.969-6.477,4.91-8.237c1.144,1.792,3.271,2.997,5.706,2.997  c2.523,0,4.717-1.293,5.827-3.192C49.598,27.094,51.693,30.221,51.714,33.801z"
     id="path4287" /><rect
     x="41.306"
     y="41.171"
     width="48.363"
     height="2.764"
     id="rect4289" /><rect
     x="70.74"
     y="13.765"
     width="18.929"
     height="2.764"
     id="rect4291" /><rect
     x="70.74"
     y="18.832"
     width="18.929"
     height="2.764"
     id="rect4293" /><rect
     x="30.021"
     y="46.929"
     width="59.648"
     height="2.764"
     id="rect4295" /><rect
     x="30.021"
     y="52.686"
     width="59.648"
     height="2.764"
     id="rect4297" /><rect
     x="30.021"
     y="58.444"
     width="59.648"
     height="2.763"
     id="rect4299" /><rect
     x="30.021"
     y="64.201"
     width="59.648"
     height="2.764"
     id="rect4301" /><rect
     x="30.021"
     y="69.959"
     width="59.648"
     height="2.764"
     id="rect4303" /><rect
     x="30.021"
     y="75.717"
     width="59.648"
     height="2.764"
     id="rect4305" /><rect
     x="30.021"
     y="81.475"
     width="59.648"
     height="2.764"
     id="rect4307" /><rect
     x="30.021"
     y="87.231"
     width="59.648"
     height="2.764"
     id="rect4309" /><rect
     x="30.021"
     y="92.989"
     width="25.679"
     height="2.764"
     id="rect4311" /><rect
     x="68.788"
     y="101.855"
     width="20.727"
     height="2.764"
     id="rect4313" /></svg>