<?xml version="1.0" encoding="UTF-8" standalone="no"?>
<svg
   xmlns:dc="http://purl.org/dc/elements/1.1/"
   xmlns:cc="http://creativecommons.org/ns#"
   xmlns:rdf="http://www.w3.org/1999/02/22-rdf-syntax-ns#"
   xmlns:svg="http://www.w3.org/2000/svg"
   xmlns="http://www.w3.org/2000/svg"
   xmlns:sodipodi="http://sodipodi.sourceforge.net/DTD/sodipodi-0.dtd"
   xmlns:inkscape="http://www.inkscape.org/namespaces/inkscape"
   version="1.1"
   id="Layer_1"
   x="0px"
   y="0px"
   viewBox="5.0 -10.0 100.0 135.0"
   enable-background="new 0 0 100 100"
   xml:space="preserve"
   height="100px"
   width="100px"
   inkscape:version="0.48.4 r9939"
   sodipodi:docname="forum.svg"><metadata
     id="metadata4396"><rdf:RDF><cc:Work
         rdf:about=""><dc:format>image/svg+xml</dc:format><dc:type
           rdf:resource="http://purl.org/dc/dcmitype/StillImage" /></cc:Work></rdf:RDF></metadata><defs
     id="defs4394" /><sodipodi:namedview
     pagecolor="#ffffff"
     bordercolor="#666666"
     borderopacity="1"
     objecttolerance="10"
     gridtolerance="10"
     guidetolerance="10"
     inkscape:pageopacity="0"
     inkscape:pageshadow="2"
     inkscape:window-width="640"
     inkscape:window-height="480"
     id="namedview4392"
     showgrid="false"
     inkscape:zoom="2.36"
     inkscape:cx="50"
     inkscape:cy="50"
     inkscape:window-x="65"
     inkscape:window-y="24"
     inkscape:window-maximized="0"
     inkscape:current-layer="Layer_1" /><path
     fill="#000000"
     d="M86.1,26c5-1.4,8.5-5.1,8.5-9.4c0-5.5-5.8-10-13-10s-13,4.5-13,10c0,2.5,1.2,4.8,3.2,6.6L57.2,37  c-2.6-2.4-6-3.8-9.8-3.8c-4.9,0-9.1,2.4-11.8,6l-8.9-5.5c0.5-1,0.9-2,0.9-3.1c0.1-4.6-4.7-8.5-10.7-8.6c-6-0.1-11,3.5-11.1,8.1  c-0.1,3.6,2.8,6.8,7,8c1.4,2.9,5.7,5.4,5.7,5.4c-1-1.3-1.1-3.6-1-4.8c3.1-0.1,5.9-1.3,7.7-3l9.1,5.6c-1,2-1.6,4.3-1.6,6.7  c0,5.5,3,10.3,7.5,12.8l-3.9,8.5c-0.5,0-1,0-1.4,0c-6.9,0.2-12.3,4.6-12.2,9.8c0.1,5,5.2,9,11.5,9.3c0.1,1.4,0,4-1.1,5.5  c0,0,4.9-2.9,6.5-6.2c4.7-1.4,8.1-5,8-9.2c-0.1-4.2-3.7-7.7-8.7-8.9l3.6-7.9c1.6,0.6,3.2,0.9,5,0.9c6.5,0,12-4.2,14-10.1l12.1,2.9  c0.1,2.6,2.2,4.8,5.1,5.7c1,2.2,4.2,4,4.2,4c-0.7-1-0.8-2.7-0.7-3.6c4.1-0.2,7.4-2.8,7.5-6c0.1-3.4-3.5-6.3-7.9-6.4  c-3.5-0.1-6.5,1.6-7.7,3.9l-12.1-2.9c0.1-0.7,0.2-1.5,0.2-2.3c0-3.5-1.2-6.6-3.2-9.1l15.1-14.2c1.9,1.1,4.1,1.8,6.5,1.9  c0,1.4-0.1,4.2-1.3,5.7C79.2,32.3,84.4,29.4,86.1,26z"
     id="path4386" /></svg>