<?xml version="1.0" encoding="UTF-8" standalone="no"?>
<svg
   xmlns:dc="http://purl.org/dc/elements/1.1/"
   xmlns:cc="http://creativecommons.org/ns#"
   xmlns:rdf="http://www.w3.org/1999/02/22-rdf-syntax-ns#"
   xmlns:svg="http://www.w3.org/2000/svg"
   xmlns="http://www.w3.org/2000/svg"
   xmlns:sodipodi="http://sodipodi.sourceforge.net/DTD/sodipodi-0.dtd"
   xmlns:inkscape="http://www.inkscape.org/namespaces/inkscape"
   version="1.1"
   id="Layer_1"
   x="0px"
   y="0px"
   width="100px"
   height="100px"
   viewBox="5.0 -10.0 100.0 135.0"
   enable-background="new 0 0 100 100"
   xml:space="preserve"
   inkscape:version="0.48.4 r9939"
   sodipodi:docname="hospital.svg"><metadata
     id="metadata4602"><rdf:RDF><cc:Work
         rdf:about=""><dc:format>image/svg+xml</dc:format><dc:type
           rdf:resource="http://purl.org/dc/dcmitype/StillImage" /><dc:title></dc:title></cc:Work></rdf:RDF></metadata><defs
     id="defs4600" /><sodipodi:namedview
     pagecolor="#ffffff"
     bordercolor="#666666"
     borderopacity="1"
     objecttolerance="10"
     gridtolerance="10"
     guidetolerance="10"
     inkscape:pageopacity="0"
     inkscape:pageshadow="2"
     inkscape:window-width="1855"
     inkscape:window-height="1056"
     id="namedview4598"
     showgrid="false"
     inkscape:zoom="2.36"
     inkscape:cx="33.050847"
     inkscape:cy="50"
     inkscape:window-x="65"
     inkscape:window-y="24"
     inkscape:window-maximized="1"
     inkscape:current-layer="Layer_1" /><path
     d="M80.041,8.592V5H76.45H23.552h-3.593v3.592h3.593v82.816h-3.593V95h3.593H76.45h3.591v-3.592H76.45V8.592H80.041z   M33.764,87.871h-5.295v-5.295h5.295V87.871z M33.764,79.22h-5.295v-5.294h5.295V79.22z M33.764,70.57h-5.295v-5.297h5.295V70.57z   M33.764,61.917h-5.295v-5.294h5.295V61.917z M33.764,53.268h-5.295v-5.294h5.295V53.268z M33.764,44.617h-5.295v-5.296h5.295  V44.617z M33.764,35.966h-5.295V30.67h5.295V35.966z M43.208,87.871h-5.295v-5.295h5.295V87.871z M43.208,79.22h-5.295v-5.294h5.295  V79.22z M43.208,70.57h-5.295v-5.297h5.295V70.57z M43.208,61.917h-5.295v-5.294h5.295V61.917z M43.208,53.268h-5.295v-5.294h5.295  V53.268z M43.208,44.617h-5.295v-5.296h5.295V44.617z M43.208,35.966h-5.295V30.67h5.295V35.966z M52.65,87.871h-5.292v-5.295h5.292  V87.871z M52.65,79.22h-5.292v-5.294h5.292V79.22z M52.65,70.57h-5.292v-5.297h5.292V70.57z M52.65,61.917h-5.292v-5.294h5.292  V61.917z M52.65,53.268h-5.292v-5.294h5.292V53.268z M52.65,44.617h-5.292v-5.296h5.292V44.617z M52.65,35.966h-5.292V30.67h5.292  V35.966z M52.65,27.314h-5.292v-6.712h-6.714v-5.295h6.714V8.592h5.292v6.715h6.714v5.295H52.65V27.314z M62.098,87.871h-5.295  v-5.295h5.295V87.871z M62.098,79.22h-5.295v-5.294h5.295V79.22z M62.098,70.57h-5.295v-5.297h5.295V70.57z M62.098,61.917h-5.295  v-5.294h5.295V61.917z M62.098,53.268h-5.295v-5.294h5.295V53.268z M62.098,44.617h-5.295v-5.296h5.295V44.617z M62.098,35.966  h-5.295V30.67h5.295V35.966z M71.54,87.871h-5.294v-5.295h5.294V87.871z M71.54,79.22h-5.294v-5.294h5.294V79.22z M71.54,70.57  h-5.294v-5.297h5.294V70.57z M71.54,61.917h-5.294v-5.294h5.294V61.917z M71.54,53.268h-5.294v-5.294h5.294V53.268z M71.54,44.617  h-5.294v-5.296h5.294V44.617z M71.54,35.966h-5.294V30.67h5.294V35.966z"
     id="path4592" /><text
     x="0"
     y="117.5"
     font-size="5.0"
     font-weight="bold"
     id="text4594"
     style="font-size:5px;font-weight:bold;fill:#000000;font-family:'Helvetica Neue, Helvetica, Arial-Unicode, Arial, Sans-serif'" />
</svg>