<?xml version="1.0" encoding="UTF-8" standalone="no"?>
<svg
   xmlns:dc="http://purl.org/dc/elements/1.1/"
   xmlns:cc="http://creativecommons.org/ns#"
   xmlns:rdf="http://www.w3.org/1999/02/22-rdf-syntax-ns#"
   xmlns:svg="http://www.w3.org/2000/svg"
   xmlns="http://www.w3.org/2000/svg"
   xmlns:sodipodi="http://sodipodi.sourceforge.net/DTD/sodipodi-0.dtd"
   xmlns:inkscape="http://www.inkscape.org/namespaces/inkscape"
   version="1.1"
   id="Layer_1"
   x="0px"
   y="0px"
   width="50.4px"
   height="50.4px"
   viewBox="2.52 -5.04 50.4 68.04"
   enable-background="new 0 0 50.4 50.4"
   xml:space="preserve"
   inkscape:version="0.48.4 r9939"
   sodipodi:docname="hospital2.svg"><metadata
     id="metadata4752"><rdf:RDF><cc:Work
         rdf:about=""><dc:format>image/svg+xml</dc:format><dc:type
           rdf:resource="http://purl.org/dc/dcmitype/StillImage" /></cc:Work></rdf:RDF></metadata><defs
     id="defs4750" /><sodipodi:namedview
     pagecolor="#ffffff"
     bordercolor="#666666"
     borderopacity="1"
     objecttolerance="10"
     gridtolerance="10"
     guidetolerance="10"
     inkscape:pageopacity="0"
     inkscape:pageshadow="2"
     inkscape:window-width="640"
     inkscape:window-height="480"
     id="namedview4748"
     showgrid="false"
     inkscape:zoom="4.6825395"
     inkscape:cx="25.200001"
     inkscape:cy="33.742374"
     inkscape:window-x="65"
     inkscape:window-y="24"
     inkscape:window-maximized="0"
     inkscape:current-layer="Layer_1" /><g
     id="Layer_2" /><polygon
     fill="#000000"
     points="20.124,14.217 13.18,14.217 13.18,7.273 6.944,7.273 6.944,14.217 0,14.217 0,20.449 6.944,20.449   6.944,27.397 13.18,27.397 13.18,20.449 20.124,20.449 "
     id="polygon4740" /><path
     d="M42.127,10.435V7.273H31.888v3.162h-8.133v33.798h0.053l11.127-0.001v-6.381h4.308v6.381L50.4,44.231l0.005-33.796H42.127z   M35.338,31.775h-5.227v-5.228h5.227V31.775z M35.338,22.936h-5.227V17.71h5.227V22.936z M44.05,31.775h-5.227v-5.228h5.227V31.775z   M44.05,22.936h-5.227V17.71h5.227V22.936z"
     id="path4742" /><text
     x="0"
     y="59.220001"
     font-size="2.52"
     font-weight="bold"
     id="text4744"
     style="font-size:2.51999998px;font-weight:bold;fill:#000000;font-family:'Helvetica Neue, Helvetica, Arial-Unicode, Arial, Sans-serif'" />
<text
     x="0"
     y="61.740002"
     font-size="2.52"
     font-weight="bold"
     id="text4746"
     style="font-size:2.51999998px;font-weight:bold;fill:#000000;font-family:'Helvetica Neue, Helvetica, Arial-Unicode, Arial, Sans-serif'" />
</svg>