<svg xmlns="http://www.w3.org/2000/svg" xmlns:xlink="http://www.w3.org/1999/xlink" version="1.1" id="Layer_1" x="0px" y="0px" width="100px" height="100px" viewBox="5.0 -10.0 100.0 135.0" enable-background="new 0 0 100 100" xml:space="preserve">
<g>
	<rect x="25.962" y="71.948" fill="none" width="9.406" height="9.406"/>
	<rect x="38.242" y="59.145" fill="none" width="19.397" height="2.875"/>
	<rect x="25.962" y="36.413" fill="none" width="9.406" height="9.406"/>
	<rect x="25.962" y="54.181" fill="none" width="9.406" height="9.406"/>
	<rect x="38.242" y="41.377" fill="none" width="19.397" height="2.875"/>
	<rect x="38.242" y="23.61" fill="none" width="19.397" height="2.874"/>
	<rect x="38.242" y="54.181" fill="none" width="35.796" height="2.874"/>
	<rect x="38.242" y="36.413" fill="none" width="35.796" height="2.875"/>
	<rect x="38.242" y="18.646" fill="none" width="35.796" height="2.874"/>
	<rect x="25.962" y="18.646" fill="none" width="9.406" height="9.406"/>
	<rect x="38.242" y="71.948" fill="none" width="35.796" height="2.874"/>
	<rect x="38.242" y="76.912" fill="none" width="19.397" height="2.874"/>
	<path d="M78.002,5H21.998c-2.594,0-4.703,2.11-4.703,4.703v80.594c0,2.594,2.109,4.703,4.703,4.703h56.004   c2.594,0,4.703-2.109,4.703-4.703V9.703C82.705,7.11,80.596,5,78.002,5z M38.242,23.61H57.64v2.874H38.242V23.61z M38.242,41.377   H57.64v2.875H38.242V41.377z M38.242,59.145H57.64v2.875H38.242V59.145z M35.368,81.354h-9.406v-9.406h9.406V81.354z    M35.368,63.587h-9.406v-9.406h9.406V63.587z M35.368,45.819h-9.406v-9.406h9.406V45.819z M35.368,28.052h-9.406v-9.406h9.406   V28.052z M57.64,79.786H38.242v-2.874H57.64V79.786z M74.038,74.822H38.242v-2.874h35.796V74.822z M74.038,57.055H38.242v-2.874   h35.796V57.055z M74.038,39.288H38.242v-2.875h35.796V39.288z M74.038,21.52H38.242v-2.874h35.796V21.52z"/>
</g>
<text x="0.0" y="117.5" font-size="5.0" font-weight="bold" font-family="Helvetica Neue, Helvetica, Arial-Unicode, Arial, Sans-serif" fill="#000000">Created by TukTuk Design</text><text x="0.0" y="122.5" font-size="5.0" font-weight="bold" font-family="Helvetica Neue, Helvetica, Arial-Unicode, Arial, Sans-serif" fill="#000000">from the Noun Project</text></svg>