<?xml version="1.0" encoding="UTF-8" standalone="no"?>
<svg
   xmlns:dc="http://purl.org/dc/elements/1.1/"
   xmlns:cc="http://creativecommons.org/ns#"
   xmlns:rdf="http://www.w3.org/1999/02/22-rdf-syntax-ns#"
   xmlns:svg="http://www.w3.org/2000/svg"
   xmlns="http://www.w3.org/2000/svg"
   xmlns:sodipodi="http://sodipodi.sourceforge.net/DTD/sodipodi-0.dtd"
   xmlns:inkscape="http://www.inkscape.org/namespaces/inkscape"
   version="1.1"
   id="Layer_1"
   x="0px"
   y="0px"
   width="32px"
   height="32px"
   viewBox="1.6 -3.2 32.0 43.2"
   enable-background="new 0 0 32 32"
   xml:space="preserve"
   inkscape:version="0.48.4 r9939"
   sodipodi:docname="speech_bubble2.svg"><metadata
     id="metadata4943"><rdf:RDF><cc:Work
         rdf:about=""><dc:format>image/svg+xml</dc:format><dc:type
           rdf:resource="http://purl.org/dc/dcmitype/StillImage" /></cc:Work></rdf:RDF></metadata><defs
     id="defs4941" /><sodipodi:namedview
     pagecolor="#ffffff"
     bordercolor="#666666"
     borderopacity="1"
     objecttolerance="10"
     gridtolerance="10"
     guidetolerance="10"
     inkscape:pageopacity="0"
     inkscape:pageshadow="2"
     inkscape:window-width="1855"
     inkscape:window-height="1056"
     id="namedview4939"
     showgrid="false"
     inkscape:zoom="7.375"
     inkscape:cx="16"
     inkscape:cy="16"
     inkscape:window-x="65"
     inkscape:window-y="24"
     inkscape:window-maximized="1"
     inkscape:current-layer="Layer_1" /><g
     id="bubble"><path
       fill-rule="evenodd"
       clip-rule="evenodd"
       fill="#000000"
       d="M16,7c-5.963,0-11,3.206-11,7c0,0.276,0.224,0.5,0.5,0.5   S6,14.276,6,14c0-3.196,4.673-6,10-6c0.275,0,0.5-0.224,0.5-0.5S16.276,7,16,7z"
       id="path4931" /><path
       fill-rule="evenodd"
       clip-rule="evenodd"
       fill="#000000"
       d="M16,2C7.163,2,0,7.373,0,14c0,4.127,2.779,7.766,7.008,9.926   C7.008,23.953,7,23.971,7,24c0,1.793-1.339,3.723-1.928,4.736c0.001,0,0.002,0,0.002,0C5.027,28.846,5,28.967,5,29.094   C5,29.594,5.405,30,5.906,30C6,30,6.165,29.975,6.161,29.986c3.125-0.512,6.069-3.383,6.753-4.215C13.913,25.918,14.943,26,16,26   c8.835,0,16-5.373,16-12C32,7.373,24.836,2,16,2z M16,24c-0.917,0-1.858-0.07-2.796-0.207c-0.097-0.016-0.194-0.021-0.29-0.021   c-0.594,0-1.163,0.264-1.546,0.73c-0.428,0.521-1.646,1.684-3.085,2.539c0.39-0.895,0.695-1.898,0.716-2.932   c0.006-0.064,0.009-0.129,0.009-0.184c0-0.752-0.421-1.439-1.09-1.781C4.212,20.252,2,17.207,2,14C2,8.486,8.28,4,16,4   c7.718,0,14,4.486,14,10C30,19.514,23.719,24,16,24z"
       id="path4933" /></g></svg>