<svg xmlns="http://www.w3.org/2000/svg" xmlns:xlink="http://www.w3.org/1999/xlink" version="1.1" id="Layer_1" x="0px" y="0px" width="100px" height="100px" viewBox="5.0 -10.0 100.0 135.0" enable-background="new 0 0 100 100" xml:space="preserve">
<path d="M71.087,22.161H34.223c-0.929,0-1.683-0.753-1.683-1.684s0.754-1.685,1.683-1.685h36.864c0.93,0,1.684,0.754,1.684,1.685  S72.017,22.161,71.087,22.161z"/>
<path d="M70.906,27.606H34.043c-0.931,0-1.684-0.755-1.684-1.684c0-0.931,0.753-1.685,1.684-1.685h36.863  c0.93,0,1.682,0.754,1.682,1.685C72.588,26.852,71.836,27.606,70.906,27.606z"/>
<path d="M71.087,33.052H34.223c-0.929,0-1.683-0.755-1.683-1.685s0.754-1.684,1.683-1.684h36.864c0.93,0,1.684,0.754,1.684,1.684  S72.017,33.052,71.087,33.052z"/>
<path d="M80.789,9.223H80.54h-3.629H28.664c-1.361,0-2.469,1.109-2.469,2.47V88.31c0,1.361,1.107,2.468,2.469,2.468h60.161  c1.362,0,2.469-1.106,2.469-2.468V23.309v-3.63v-0.526L80.789,9.223z M87.662,87.148H29.825V12.854h47.086v10.455h10.751V87.148z   M80.54,19.679v-5.697l6.026,5.697H80.54z"/>
<rect x="12.198" y="56.729" transform="matrix(0.8192 0.5736 -0.5736 0.8192 41.5859 -7.5471)" width="41.126" height="10.889"/>
<path d="M11.146,54.207c-2.612-1.828-3.223-5.467-1.362-8.124c1.861-2.659,5.489-3.329,8.104-1.498  C18.468,44.991,11.875,54.719,11.146,54.207z"/>
<polygon points="47.174,79.331 53.676,70.038 58.465,80.316 "/>
<path d="M78.331,74.072h-12.25c-0.606,0-1.094-0.489-1.094-1.095V59.909c0-0.604,0.487-1.094,1.094-1.094h12.25  c0.605,0,1.096,0.49,1.096,1.094v13.068C79.427,73.583,78.937,74.072,78.331,74.072z M67.174,71.884h10.063v-10.88H67.174V71.884z"/>
<path d="M60.377,43.455H33.378c-0.797,0-1.441-0.645-1.441-1.441c0-0.795,0.645-1.439,1.441-1.439h26.999  c0.795,0,1.441,0.645,1.441,1.439C61.818,42.811,61.172,43.455,60.377,43.455z"/>
<path d="M60.497,47.508H33.499c-0.796,0-1.441-0.645-1.441-1.439c0-0.796,0.646-1.44,1.441-1.44h26.999  c0.795,0,1.441,0.645,1.441,1.44C61.938,46.863,61.292,47.508,60.497,47.508z"/>
<path d="M78.453,40.815H66.201c-0.604,0-1.094,0.489-1.094,1.095v13.069c0,0.604,0.49,1.093,1.094,1.093h12.252  c0.604,0,1.094-0.489,1.094-1.093V41.91C79.547,41.305,79.058,40.815,78.453,40.815z M70.317,48.481l-3.022,3.224v-6.49  L70.317,48.481z M69.177,43.004h6.275l-3.158,3.369L69.177,43.004z M72.279,50.602l3.035,3.283h-6.112L72.279,50.602z   M74.256,48.494l3.102-3.311v6.667L74.256,48.494z"/>
<text x="0.0" y="117.5" font-size="5.0" font-weight="bold" font-family="Helvetica Neue, Helvetica, Arial-Unicode, Arial, Sans-serif" fill="#000000">Created by Michael Thompson</text><text x="0.0" y="122.5" font-size="5.0" font-weight="bold" font-family="Helvetica Neue, Helvetica, Arial-Unicode, Arial, Sans-serif" fill="#000000">from the Noun Project</text></svg>